<svg width="173" height="40" viewBox="0 0 173 40" fill="none" xmlns="http://www.w3.org/2000/svg">
<g clip-path="url(#clip0)">
<path d="M34.1422 5.85781C30.3647 2.08031 25.3422 0 20 0C14.6578 0 9.63531 2.08031 5.85781 5.85781C2.08031 9.63531 0 14.6578 0 20C0 25.3422 2.08039 30.3646 5.85781 34.1422C9.63523 37.9198 14.6578 40 20 40C25.3422 40 30.3647 37.9197 34.1422 34.1422C37.9197 30.3647 40 25.3422 40 20C40 14.6578 37.9196 9.63539 34.1422 5.85781Z" fill="#33CC95"/>
<path d="M19.5714 7V32.1429" stroke="white" stroke-width="2" stroke-linecap="round" stroke-linejoin="round"/>
<path d="M25.2858 11.5713H16.7144C15.6535 11.5713 14.6361 11.9928 13.886 12.7429C13.1358 13.493 12.7144 14.5105 12.7144 15.5713C12.7144 16.6322 13.1358 17.6496 13.886 18.3998C14.6361 19.1499 15.6535 19.5713 16.7144 19.5713H22.4287C23.4895 19.5713 24.507 19.9928 25.2571 20.7429C26.0073 21.4931 26.4287 22.5105 26.4287 23.5713C26.4287 24.6322 26.0073 25.6496 25.2571 26.3998C24.507 27.1499 23.4895 27.5713 22.4287 27.5713H12.7144" stroke="white" stroke-width="2" stroke-linecap="round" stroke-linejoin="round"/>
<path d="M55.876 17.0303C55.876 14.9229 56.3753 13.2259 57.374 11.9395C58.3812 10.653 59.7354 10.0098 61.4365 10.0098C62.943 10.0098 64.1152 10.526 64.9531 11.5586L65.1055 10.2637H68.4316V23.543C68.4316 24.7448 68.1566 25.79 67.6064 26.6787C67.0648 27.5674 66.2988 28.2445 65.3086 28.71C64.3184 29.1755 63.1589 29.4082 61.8301 29.4082C60.8229 29.4082 59.8411 29.2051 58.8848 28.7988C57.9284 28.401 57.2048 27.8848 56.7139 27.25L58.3389 25.0156C59.2529 26.0397 60.3617 26.5518 61.665 26.5518C62.6383 26.5518 63.3958 26.2894 63.9375 25.7646C64.4792 25.2484 64.75 24.512 64.75 23.5557V22.8193C63.9036 23.7757 62.7907 24.2539 61.4111 24.2539C59.7607 24.2539 58.4235 23.6107 57.3994 22.3242C56.3838 21.0293 55.876 19.3154 55.876 17.1826V17.0303ZM59.5449 17.2969C59.5449 18.541 59.7946 19.5186 60.2939 20.2295C60.7933 20.932 61.4788 21.2832 62.3506 21.2832C63.4678 21.2832 64.2676 20.8643 64.75 20.0264V14.25C64.2591 13.4121 63.4678 12.9932 62.376 12.9932C61.4958 12.9932 60.8018 13.3529 60.2939 14.0723C59.7946 14.7917 59.5449 15.8665 59.5449 17.2969ZM83.6279 17.2588C83.6279 19.3747 83.1455 21.0716 82.1807 22.3496C81.2243 23.6191 79.9294 24.2539 78.2959 24.2539C76.9079 24.2539 75.7865 23.7715 74.9316 22.8066V29.2812H71.2627V10.2637H74.665L74.792 11.6094C75.6807 10.543 76.8402 10.0098 78.2705 10.0098C79.9632 10.0098 81.2793 10.6361 82.2188 11.8887C83.1582 13.1413 83.6279 14.8678 83.6279 17.0684V17.2588ZM79.959 16.9922C79.959 15.7142 79.7305 14.7282 79.2734 14.0342C78.8249 13.3402 78.1689 12.9932 77.3057 12.9932C76.1546 12.9932 75.3633 13.4333 74.9316 14.3135V19.9375C75.3802 20.8431 76.18 21.2959 77.3311 21.2959C79.083 21.2959 79.959 19.8613 79.959 16.9922ZM93.0479 17.5635H85.9004V14.6055H93.0479V17.5635ZM99.4336 10.2637L99.5479 11.7998C100.521 10.6064 101.837 10.0098 103.496 10.0098C105.265 10.0098 106.479 10.708 107.14 12.1045C108.104 10.708 109.48 10.0098 111.266 10.0098C112.755 10.0098 113.864 10.4456 114.592 11.3174C115.32 12.1807 115.684 13.484 115.684 15.2275V24H112.002V15.2402C112.002 14.4616 111.85 13.8945 111.545 13.5391C111.24 13.1751 110.703 12.9932 109.933 12.9932C108.832 12.9932 108.071 13.5179 107.647 14.5674L107.66 24H103.991V15.2529C103.991 14.4574 103.835 13.8818 103.521 13.5264C103.208 13.1709 102.675 12.9932 101.922 12.9932C100.881 12.9932 100.128 13.4248 99.6621 14.2881V24H95.9932V10.2637H99.4336ZM117.943 17.0049C117.943 15.6423 118.206 14.4277 118.73 13.3613C119.255 12.2949 120.008 11.4697 120.99 10.8857C121.98 10.3018 123.127 10.0098 124.431 10.0098C126.284 10.0098 127.795 10.5768 128.963 11.7109C130.139 12.8451 130.795 14.3854 130.931 16.332L130.956 17.2715C130.956 19.3789 130.368 21.0716 129.191 22.3496C128.015 23.6191 126.437 24.2539 124.456 24.2539C122.476 24.2539 120.893 23.6191 119.708 22.3496C118.532 21.0801 117.943 19.3535 117.943 17.1699V17.0049ZM121.612 17.2715C121.612 18.5749 121.858 19.5736 122.349 20.2676C122.84 20.9531 123.542 21.2959 124.456 21.2959C125.345 21.2959 126.039 20.9574 126.538 20.2803C127.037 19.5947 127.287 18.5029 127.287 17.0049C127.287 15.7269 127.037 14.7367 126.538 14.0342C126.039 13.3317 125.336 12.9805 124.431 12.9805C123.534 12.9805 122.84 13.3317 122.349 14.0342C121.858 14.7282 121.612 15.8073 121.612 17.2715ZM136.593 10.2637L136.707 11.8506C137.689 10.6234 139.005 10.0098 140.655 10.0098C142.111 10.0098 143.194 10.4372 143.905 11.292C144.616 12.1468 144.98 13.4248 144.997 15.126V24H141.328V15.2148C141.328 14.4362 141.159 13.8734 140.82 13.5264C140.482 13.1709 139.919 12.9932 139.132 12.9932C138.099 12.9932 137.325 13.4333 136.809 14.3135V24H133.14V10.2637H136.593ZM154.112 24.2539C152.098 24.2539 150.456 23.6361 149.187 22.4004C147.925 21.1647 147.295 19.5186 147.295 17.4619V17.1064C147.295 15.7269 147.562 14.4954 148.095 13.4121C148.628 12.3203 149.381 11.4824 150.354 10.8984C151.336 10.306 152.453 10.0098 153.706 10.0098C155.585 10.0098 157.062 10.6022 158.137 11.7871C159.22 12.972 159.762 14.652 159.762 16.8271V18.3252H151.015C151.133 19.2223 151.489 19.9417 152.081 20.4834C152.682 21.0251 153.439 21.2959 154.354 21.2959C155.767 21.2959 156.871 20.7839 157.667 19.7598L159.47 21.7783C158.92 22.557 158.175 23.1663 157.235 23.6064C156.296 24.0381 155.255 24.2539 154.112 24.2539ZM153.693 12.9805C152.965 12.9805 152.373 13.2259 151.916 13.7168C151.467 14.2077 151.18 14.9102 151.053 15.8242H156.156V15.5322C156.139 14.7197 155.919 14.0934 155.496 13.6533C155.073 13.2048 154.472 12.9805 153.693 12.9805ZM166.808 18.8076L169.347 10.2637H173.282L167.76 26.1328L167.455 26.8564C166.634 28.6507 165.28 29.5479 163.393 29.5479C162.859 29.5479 162.318 29.4674 161.768 29.3066V26.5264L162.326 26.5391C163.02 26.5391 163.536 26.4333 163.875 26.2217C164.222 26.0101 164.493 25.6589 164.688 25.168L165.119 24.0381L160.308 10.2637H164.256L166.808 18.8076Z" fill="#FBFBFB"/>
</g>
<defs>
<clipPath id="clip0">
<rect width="173" height="40" fill="white"/>
</clipPath>
</defs>
</svg>
